Coordinates
version=1
nRows=8
nColumns=63
inDegrees=yes

Units are S.I. units (second, meters, Newtons, ...)
If the header above contains a line with 'inDegrees', this indicates whether rotational values are in degrees (yes) or radians (no).

endheader
time	pelvis_tilt	pelvis_list	pelvis_rotation	pelvis_tx	pelvis_ty	pelvis_tz	hip_flexion_r	hip_adduction_r	hip_rotation_r	knee_angle_r	knee_angle_r_beta	ankle_angle_r	subtalar_angle_r	mtp_angle_r	hip_flexion_l	hip_adduction_l	hip_rotation_l	knee_angle_l	knee_angle_l_beta	ankle_angle_l	subtalar_angle_l	mtp_angle_l	L5_S1_Flex_Ext	L5_S1_Lat_Bending	L5_S1_axial_rotation	L4_L5_Flex_Ext	L4_L5_Lat_Bending	L4_L5_axial_rotation	L3_L4_Flex_Ext	L3_L4_Lat_Bending	L3_L4_axial_rotation	L2_L3_Flex_Ext	L2_L3_Lat_Bending	L2_L3_axial_rotation	L1_L2_Flex_Ext	L1_L2_Lat_Bending	L1_L2_axial_rotation	L1_T12_Flex_Ext	L1_T12_Lat_Bending	L1_T12_axial_rotation	Abs_r3	Abs_r2	Abs_r1	Abs_t1	Abs_t2	neck_flexion	neck_bending	neck_rotation	arm_flex_r	arm_add_r	arm_rot_r	elbow_flex_r	pro_sup_r	wrist_flex_r	wrist_dev_r	arm_flex_l	arm_add_l	arm_rot_l	elbow_flex_l	pro_sup_l	wrist_flex_l	wrist_dev_l
1.884615	-2.904121	0.068945	84.677412	0.312773	0.992214	0.615615	0.105266	-4.058689	-14.741878	9.347147	0.163138	30.442073	16.754225	0.000000	0.167325	2.819468	5.145703	5.444261	0.095020	26.417921	-3.896699	0.000000	-0.023452	-0.118998	0.656264	-0.043553	-0.158267	0.697280	-0.038530	-0.289331	0.697280	-0.026804	-0.289331	0.574231	-0.021778	-0.242661	0.533214	-0.013401	-0.184328	0.492198	-0.167517	-1.346128	3.649943	0.000000	0.000000	16.153726	-3.395670	-14.546386	203.106478	-157.077196	198.779402	147.522367	89.259284	7.419774	4.768032	21.318566	-21.077017	16.368408	149.735396	62.588431	18.264755	13.677798
1.903846	-2.923143	0.006522	84.681786	0.312754	0.992310	0.615485	0.157382	-4.063807	-14.631725	9.296836	0.162260	30.389257	16.728895	0.000000	0.226429	2.844639	5.293148	5.407653	0.094381	26.311337	-4.119518	0.000000	-0.017875	-0.113739	0.632063	-0.033196	-0.151273	0.671567	-0.029367	-0.276546	0.671567	-0.020429	-0.276546	0.553055	-0.016599	-0.231937	0.513552	-0.010214	-0.176182	0.474048	-0.127679	-1.286643	3.515347	0.000000	0.000000	16.034369	-3.507273	-14.077489	203.090568	-157.147846	199.175698	147.444671	89.235052	7.297774	4.634360	20.985393	-20.643468	16.200883	149.716461	62.386260	17.660241	13.972327
1.923077	-2.927762	-0.044281	84.697788	0.312733	0.992407	0.615330	0.192928	-4.050246	-14.499742	9.240575	0.161278	30.367379	16.716061	0.000000	0.268198	2.859181	5.513665	5.371179	0.093745	26.195579	-4.431270	0.000000	-0.012499	-0.106970	0.598786	-0.023212	-0.142270	0.636210	-0.020535	-0.260086	0.636210	-0.014285	-0.260086	0.523938	-0.011607	-0.218133	0.486514	-0.007142	-0.165696	0.449090	-0.089280	-1.210064	3.330269	0.000000	0.000000	15.951921	-3.639639	-13.470942	203.133077	-157.215522	199.663399	147.334606	89.204633	7.131732	4.518813	20.606779	-20.219242	15.975230	149.701149	62.590513	16.856300	14.232315
1.942308	-2.932493	-0.103462	84.709265	0.312778	0.992463	0.615137	0.234941	-4.029901	-14.348083	9.177007	0.160169	30.389565	16.744101	0.000000	0.311276	2.868542	5.712161	5.325856	0.092954	26.091286	-4.713485	0.000000	-0.005063	-0.101927	0.558998	-0.009402	-0.135564	0.593935	-0.008317	-0.247827	0.593935	-0.005786	-0.247827	0.489123	-0.004701	-0.207851	0.454186	-0.002893	-0.157886	0.419248	-0.036161	-1.153024	3.108978	0.000000	0.000000	15.965196	-3.760390	-12.857300	203.206256	-157.295666	200.249417	147.222600	89.169780	6.917027	4.448581	20.168579	-19.838438	15.687669	149.684533	63.433796	16.054390	14.248199
1.961538	-2.945127	-0.176323	84.707070	0.312915	0.992461	0.614905	0.293737	-4.010320	-14.172268	9.114663	0.159081	30.457447	16.801236	0.000000	0.359185	2.882640	5.948186	5.263399	0.091864	25.973028	-5.071425	0.000000	0.004783	-0.099297	0.511381	0.008882	-0.132065	0.543342	0.007858	-0.241430	0.543342	0.005466	-0.241430	0.447458	0.004441	-0.202486	0.415497	0.002733	-0.153811	0.383536	0.034163	-1.123266	2.844147	0.000000	0.000000	16.069323	-3.885266	-12.224249	203.315366	-157.403774	200.897650	147.121857	89.131439	6.770836	4.454070	19.673595	-19.530180	15.338541	149.664962	64.689552	15.519510	14.008092
1.980769	-2.952295	-0.247385	84.697429	0.313099	0.992417	0.614672	0.356250	-3.983579	-13.999412	9.065379	0.158221	30.558097	16.875749	0.000000	0.403464	2.886977	6.146720	5.197841	0.090719	25.881598	-5.384543	0.000000	0.013443	-0.097915	0.460835	0.024964	-0.130227	0.489638	0.022085	-0.238071	0.489638	0.015364	-0.238071	0.403231	0.012483	-0.199669	0.374429	0.007681	-0.151671	0.345626	0.096019	-1.107636	2.563028	0.000000	0.000000	16.230868	-4.016940	-11.626039	203.417070	-157.529293	201.481755	147.067443	89.092915	6.716083	4.552320	19.145438	-19.294528	14.997524	149.646788	66.538329	15.168719	13.285709
2.000000	-2.936801	-0.323879	84.669346	0.313300	0.992328	0.614455	0.428435	-3.935014	-13.838274	9.027659	0.157562	30.660167	16.969126	0.000000	0.445611	2.867588	6.378590	5.121712	0.089391	25.793630	-5.763293	0.000000	0.021750	-0.094335	0.411572	0.040393	-0.125465	0.437296	0.035734	-0.229365	0.437296	0.024859	-0.229365	0.360126	0.020197	-0.192367	0.334403	0.012428	-0.146124	0.308679	0.155361	-1.067133	2.289043	0.000000	0.000000	16.428180	-4.129298	-11.014528	203.497668	-157.646017	201.922039	147.079288	89.060061	6.726040	4.719488	18.597739	-19.102443	14.663655	149.631326	68.346896	15.271661	12.348746
2.019231	-2.903583	-0.397640	84.619528	0.313499	0.992205	0.614309	0.507702	-3.873997	-13.697662	9.009526	0.157246	30.745462	17.060392	0.000000	0.485073	2.829342	6.596927	5.048379	0.088111	25.719192	-6.145048	0.000000	0.028239	-0.088723	0.370560	0.052442	-0.118001	0.393720	0.046393	-0.215721	0.393720	0.032274	-0.215721	0.324240	0.026222	-0.180924	0.301080	0.016136	-0.137432	0.277920	0.201706	-1.003650	2.060941	0.000000	0.000000	16.605469	-4.228827	-10.432381	203.533424	-157.737977	202.092353	147.161345	89.038179	6.845093	4.936152	18.061697	-18.931673	14.315053	149.621027	69.571626	15.923144	11.433009
